<?xml version="1.0" encoding="UTF-8"?>
<!DOCTYPE svg PUBLIC "-//W3C//DTD SVG 1.1//EN" "http://www.w3.org/Graphics/SVG/1.1/DTD/svg11.dtd">
<!-- Creator: CorelDRAW X7 -->
<svg xmlns="http://www.w3.org/2000/svg" xml:space="preserve" width="1601px" height="1080px" version="1.1" style="shape-rendering:geometricPrecision; text-rendering:geometricPrecision; image-rendering:optimizeQuality; fill-rule:evenodd; clip-rule:evenodd"
viewBox="0 0 1601 1080"
 xmlns:xlink="http://www.w3.org/1999/xlink">
 <defs>
  <style type="text/css">
   <![CDATA[
    .fil1 {fill:#FEFEFE}
    .fil2 {fill:#F4A033}
    .fil4 {fill:#242222}
    .fil0 {fill:#4562AB}
    .fil3 {fill:#242222;fill-rule:nonzero}
   ]]>
  </style>
 </defs>
 <g id="Layer_x0020_1">
  <metadata id="CorelCorpID_0Corel-Layer"/>
  <path class="fil0" d="M800 0c76,34 159,53 226,102 72,53 123,131 185,196 -10,82 -2,167 -28,246 -27,85 -86,157 -129,236 -81,17 -160,50 -242,50 -90,0 -177,-33 -265,-50 -41,-72 -97,-136 -122,-215 -28,-85 -23,-178 -35,-267 56,-61 100,-134 167,-183 73,-53 162,-77 243,-115z"/>
  <path class="fil1" d="M801 419c2,-6 10,-20 13,-25 3,-4 5,-8 12,-8 -10,25 -7,59 7,84 9,15 26,27 44,31 2,7 3,11 3,19 22,-5 27,-21 25,-39 -3,-13 -7,-29 -4,-40 4,-10 8,-18 24,-14 -5,13 -7,27 -4,42 10,47 40,67 16,114 -13,26 -45,34 -64,36 -27,3 -36,23 -44,30 1,-7 0,-15 -2,-24 -5,-18 -15,-33 -26,-39 -12,6 -22,21 -27,39 -2,9 -3,17 -2,24 -8,-7 -17,-27 -44,-30 -19,-2 -51,-10 -64,-36 -24,-47 6,-67 16,-114 3,-15 1,-29 -4,-42 16,-4 20,4 24,14 3,11 -1,27 -4,40 -2,18 3,34 25,39 0,-8 1,-12 3,-19 18,-4 35,-16 44,-31 14,-25 17,-59 7,-84 7,0 9,4 12,8 3,5 11,19 14,25zm0 -99c-4,8 -27,25 -30,29 -4,5 -8,16 0,27 14,0 24,17 30,28 5,-11 15,-28 29,-28 8,-11 4,-22 0,-27 -3,-4 -26,-21 -29,-29zm27 100c-2,23 7,58 47,74 -5,-21 -26,-64 -47,-74zm-55 0c-21,10 -42,53 -47,74 40,-16 49,-51 47,-74zm28 292c-41,-20 -71,-24 -103,-12 -25,9 -50,25 -79,34l-1 12c29,-7 49,-23 74,-33 32,-12 67,-8 109,11 41,-19 76,-23 108,-11 25,10 45,26 74,33l-1 -12c-29,-9 -54,-25 -79,-34 -32,-12 -62,-8 -102,12zm0 -536c1,4 9,9 16,13 9,6 14,15 13,29l-6 87 5 6 13 -122c4,7 11,22 17,28 9,8 12,20 9,32l-19 85 6 7 26 -108c6,-11 10,-17 21,-18 12,-1 24,8 37,20 -15,2 -23,2 -27,19l-50 192c-10,-13 -17,-28 -33,-33 1,-19 10,-33 13,-51 5,-22 -41,-39 -41,-59 0,20 -47,37 -42,59 3,18 12,32 13,51 -16,5 -23,20 -33,33l-50 -192c-4,-17 -12,-17 -27,-19 13,-12 25,-21 37,-20 11,1 15,7 21,18l26 108 6 -7 -19 -85c-3,-12 0,-24 9,-32 6,-6 13,-21 17,-28l13 122 5 -6 -6 -87c-1,-14 4,-23 13,-29 7,-4 15,-9 17,-13zm171 463c-15,-5 -33,-12 -82,-14 22,-7 41,-14 51,-30 12,-18 14,-44 13,-54 -2,-17 -10,-32 -18,-49 -8,-20 -13,-42 -5,-63 4,-8 15,-9 28,-6 15,4 42,23 56,28 13,4 50,5 64,-7 9,-8 14,-28 10,-42 -6,-16 -15,-24 -16,-46 5,13 22,32 27,42 11,11 12,45 7,60 -3,9 -13,18 -21,23 -19,12 -32,10 -48,12l-4 9c5,1 22,0 37,-6 14,-4 25,-12 27,-14 0,15 -9,33 -25,42 -13,8 -29,11 -40,11l-4 8c22,0 49,-9 62,-23 -2,21 -8,35 -28,45 -13,6 -36,8 -44,9l-5 9c11,-1 19,-1 28,-3 9,-2 24,-6 31,-10 -3,11 -7,23 -20,30 -15,8 -34,12 -49,13l-4 7c16,2 40,-6 47,-11 -3,13 -17,33 -32,35 -9,2 -27,0 -43,-5zm-343 0c15,-5 33,-12 82,-14 -22,-7 -41,-14 -51,-30 -12,-18 -14,-44 -13,-54 2,-17 10,-32 18,-49 8,-20 13,-42 5,-63 -4,-8 -15,-9 -28,-6 -15,4 -42,23 -56,28 -13,4 -50,5 -64,-7 -9,-8 -14,-28 -10,-42 6,-16 15,-24 16,-46 -5,13 -22,32 -27,42 -11,11 -12,45 -7,60 3,9 13,18 21,23 19,12 32,10 48,12l4 9c-5,1 -22,0 -37,-6 -14,-4 -25,-12 -27,-14 0,15 9,33 25,42 13,8 29,11 40,11l4 8c-22,0 -49,-9 -62,-23 2,21 8,35 28,45 13,6 36,8 44,9l5 9c-11,-1 -19,-1 -28,-3 -9,-2 -24,-6 -31,-10 3,11 7,23 20,30 15,8 34,12 49,13l4 7c-16,2 -40,-6 -47,-11 3,13 17,33 32,35 9,2 27,0 43,-5zm187 26c2,-4 5,-8 6,-13 1,-7 2,-11 -1,-24 -3,-12 -12,-29 -20,-34 -9,5 -17,18 -21,34 -2,9 -2,17 -1,24 3,8 7,15 11,19 0,0 0,0 0,0 4,3 7,6 11,8 5,-3 10,-8 15,-14zm-15 39c40,-20 73,-23 104,-11 27,10 48,28 76,34l-4 -26c-30,-5 -51,-25 -78,-36 -24,-9 -50,-9 -80,3 -5,8 -12,15 -18,18 -7,-3 -14,-10 -19,-18 -30,-12 -56,-12 -80,-3 -27,11 -48,31 -78,36l-4 26c28,-6 49,-24 76,-34 31,-12 64,-9 105,11zm0 -124c13,0 19,6 28,13 17,-10 29,-36 26,-55 -3,-16 -19,-42 -31,-63 -9,-16 -18,-38 -23,-49 -6,11 -15,33 -24,49 -12,21 -28,47 -31,63 -3,19 9,45 26,55 9,-7 15,-13 29,-13z"/>
  <path class="fil2" d="M801 442c-1,4 -10,20 -19,36 12,9 19,16 22,26 4,11 2,25 -4,47l-7 -2c6,-21 7,-33 4,-43 -3,-8 -9,-15 -18,-22 -6,10 -12,20 -15,24 -7,13 -15,35 -12,49 4,14 12,20 17,27 10,-7 16,-12 32,-12 15,0 21,5 31,12 5,-7 13,-13 17,-27 3,-14 -5,-36 -12,-49 -8,-12 -36,-58 -36,-66z"/>
  <path class="fil3" d="M538 239l4 2 -4 9 36 16 -6 13 -36 -17 -4 10 -4 -2 14 -31zm23 -36l24 16c9,5 10,12 4,22 -6,9 -13,11 -21,6l-25 -16 7 -11 25 16c3,2 5,3 7,3 2,0 4,-2 5,-4 3,-5 2,-9 -4,-13l-25 -15 3 -4zm29 -34l3 3 -7 8 29 26 -8 10 -30 -26 -7 9 -3 -3 23 -27zm66 -49l13 43 -7 4 -18 -16 8 23 -7 4 -33 -30 11 -7 20 19 -9 -26 6 -4 20 19 -9 -27 5 -2zm38 -18l12 26c4,9 1,16 -9,21 -10,4 -17,2 -21,-7l-12 -26 11 -6 13 27c1,4 3,6 4,7 2,0 4,0 7,-1 5,-2 6,-7 3,-13l-12 -27 4 -1zm24 37l-9 -43 18 -4c5,-1 9,-1 12,1 3,1 5,3 6,7 1,5 -1,9 -7,12 4,0 6,1 7,2 1,1 3,4 4,8 1,5 3,8 4,9l-13 3c-1,-2 -2,-4 -3,-7l-1 -3 0 -3c-2,-5 -4,-7 -8,-6l-2 1 5 20 -13 3zm7 -27l3 -1c4,-1 6,-4 5,-8 -1,-5 -4,-7 -9,-6l-2 0 3 15zm40 -27l6 43 -12 2 -6 -43 12 -2zm47 21l-1 21 -12 0 2 -44 13 1 -1 17 10 1 1 -18 13 1 -3 44 -13 -1 2 -22 -11 0zm58 -14l3 46 -13 -3 0 -10 -13 -3 -5 9 -5 -1 22 -40 11 2zm-21 26l10 3 0 -20 -10 17zm72 -9l-16 41 -9 -3 -7 -32 -10 26 -4 -2 15 -41 8 3 8 35 11 -28 4 1zm-9 45l22 -37 16 9c11,7 13,17 5,29 -7,12 -17,15 -28,8l-15 -9zm13 4l2 2c3,1 5,1 8,-1 2,-1 5,-5 9,-11 3,-6 5,-10 6,-13 0,-3 -1,-5 -4,-7l-3 -1 -18 31zm66 -1l-19 41 -10 -8 4 -9 -10 -9 -8 6 -4 -4 38 -24 9 7zm-31 13l8 7 9 -18 -17 11zm67 25l-27 10 -12 11 -9 -10 12 -11 13 -27 9 10 -10 21 21 -8 3 4zm16 23l-29 34 -7 -11 6 -7 -7 -11 -10 3 -2 -4 43 -13 6 9zm-33 4l6 9 13 -15 -19 6zm58 43l-39 19 -4 -9 17 -28 -25 12 -2 -4 39 -19 4 7 -18 31 27 -13 1 4zm9 23l-41 15 -4 -12 41 -15 4 12zm-276 424c-41,-20 -71,-24 -103,-12 -25,9 -50,25 -79,34l-1 12c29,-7 49,-23 74,-33 32,-12 67,-8 109,11 41,-19 76,-23 108,-11 25,10 45,26 74,33l-1 -12c-29,-9 -54,-25 -79,-34 -32,-12 -62,-8 -102,12zm0 -8c40,-20 73,-23 104,-11 27,10 48,28 76,34l-4 -26c-30,-5 -51,-25 -78,-36 -24,-9 -50,-9 -80,3 -5,8 -12,15 -18,18 -7,-3 -14,-10 -19,-18 -30,-12 -56,-12 -80,-3 -27,11 -48,31 -78,36l-4 26c28,-6 49,-24 76,-34 31,-12 64,-9 105,11zm15 -39c2,-4 5,-8 6,-13 1,-7 2,-11 -1,-24 -3,-12 -12,-29 -20,-34 -9,5 -17,18 -21,34 -2,9 -2,17 -1,24 3,8 7,15 11,19 0,0 0,0 0,0 4,3 7,6 11,8 5,-3 10,-8 15,-14zm-15 -223c-1,4 -10,20 -19,36 12,9 19,16 22,26 4,11 2,25 -4,47l-7 -2c6,-21 7,-33 4,-43 -3,-8 -9,-15 -18,-22 -6,10 -12,20 -15,24 -7,13 -15,35 -12,49 4,14 12,20 17,27 10,-7 16,-12 32,-12 15,0 21,5 31,12 5,-7 13,-13 17,-27 3,-14 -5,-36 -12,-49 -8,-12 -36,-58 -36,-66zm0 -122c-4,8 -27,25 -30,29 -4,5 -8,16 0,27 14,0 24,17 30,28 5,-11 15,-28 29,-28 8,-11 4,-22 0,-27 -3,-4 -26,-21 -29,-29zm27 100c-2,23 7,58 47,74 -5,-21 -26,-64 -47,-74zm-55 0c-21,10 -42,53 -47,74 40,-16 49,-51 47,-74zm28 -244c-2,4 -10,9 -17,13 -9,6 -14,15 -13,29l6 87 -5 6 -13 -122c-4,7 -11,22 -17,28 -9,8 -12,20 -9,32l19 85 -6 7 -26 -108c-6,-11 -10,-17 -21,-18 -12,-1 -24,8 -37,20 15,2 23,2 27,19l50 192c10,-13 17,-28 33,-33 -1,-19 -10,-33 -13,-51 -5,-22 42,-39 42,-59 0,20 46,37 41,59 -3,18 -12,32 -13,51 16,5 23,20 33,33l50 -192c4,-17 12,-17 27,-19 -13,-12 -25,-21 -37,-20 -11,1 -15,7 -21,18l-26 108 -6 -7 19 -85c3,-12 0,-24 -9,-32 -6,-6 -13,-21 -17,-28l-13 122 -5 -6 6 -87c1,-14 -4,-23 -13,-29 -7,-4 -15,-9 -16,-13zm171 463c16,5 34,7 43,5 15,-2 29,-22 32,-35 -7,5 -31,13 -47,11l4 -7c15,-1 34,-5 49,-13 13,-7 17,-19 20,-30 -7,4 -22,8 -31,10 -9,2 -17,2 -28,3l5 -9c8,-1 31,-3 44,-9 20,-10 26,-24 28,-45 -13,14 -40,23 -62,23l4 -8c11,0 27,-3 40,-11 16,-9 25,-27 25,-42 -2,2 -13,10 -27,14 -15,6 -32,7 -37,6l4 -9c16,-2 29,0 48,-12 8,-5 18,-14 21,-23 5,-15 4,-49 -7,-60 -5,-10 -22,-29 -27,-42 1,22 10,30 16,46 4,14 -1,34 -10,42 -14,12 -51,11 -64,7 -14,-5 -41,-24 -56,-28 -13,-3 -24,-2 -28,6 -8,21 -3,43 5,63 8,17 16,32 18,49 1,10 -1,36 -13,54 -10,16 -29,23 -51,30 49,2 67,9 82,14zm-171 -59c-14,0 -20,6 -29,13 -17,-10 -29,-36 -26,-55 3,-16 19,-42 31,-63 9,-16 18,-38 24,-49 5,11 14,33 23,49 12,21 28,47 31,63 3,19 -9,45 -26,55 -9,-7 -15,-13 -28,-13zm0 -161c-3,-6 -11,-20 -14,-25 -3,-4 -5,-8 -12,-8 10,25 7,59 -7,84 -9,15 -26,27 -44,31 -2,7 -3,11 -3,19 -22,-5 -27,-21 -25,-39 3,-13 7,-29 4,-40 -4,-10 -8,-18 -24,-14 5,13 7,27 4,42 -10,47 -40,67 -16,114 13,26 45,34 64,36 27,3 36,23 44,30 -1,-7 0,-15 2,-24 5,-18 15,-33 27,-39 11,6 21,21 26,39 2,9 3,17 2,24 8,-7 17,-27 44,-30 19,-2 51,-10 64,-36 24,-47 -6,-67 -16,-114 -3,-15 -1,-29 4,-42 -16,-4 -20,4 -24,14 -3,11 1,27 4,40 2,18 -3,34 -25,39 0,-8 -1,-12 -3,-19 -18,-4 -35,-16 -44,-31 -14,-25 -17,-59 -7,-84 -7,0 -9,4 -12,8 -3,5 -11,19 -13,25zm-172 220c15,-5 33,-12 82,-14 -22,-7 -41,-14 -51,-30 -12,-18 -14,-44 -13,-54 2,-17 10,-32 18,-49 8,-20 13,-42 5,-63 -4,-8 -15,-9 -28,-6 -15,4 -42,23 -56,28 -13,4 -50,5 -64,-7 -9,-8 -14,-28 -10,-42 6,-16 15,-24 16,-46 -5,13 -22,32 -27,42 -11,11 -12,45 -7,60 3,9 13,18 21,23 19,12 32,10 48,12l4 9c-5,1 -22,0 -37,-6 -14,-4 -25,-12 -27,-14 0,15 9,33 25,42 13,8 29,11 40,11l4 8c-22,0 -49,-9 -62,-23 2,21 8,35 28,45 13,6 36,8 44,9l5 9c-11,-1 -19,-1 -28,-3 -9,-2 -24,-6 -31,-10 3,11 7,23 20,30 15,8 34,12 49,13l4 7c-16,2 -40,-6 -47,-11 3,13 17,33 32,35 9,2 27,0 43,-5zm91 -142l2 -7 1 -2 0 -2 1 -3 1 -2 1 -3 1 -3 1 -2 1 -3 2 -3 1 -3 1 -3 2 -2 1 -3 1 -1 -53 -200 0 -1 0 -1 -1 -2 0 -1 -1 -1 0 -1 -1 0 0 -1 0 -1 -1 0 0 -1 -1 0 0 -1 -1 0 0 0 -1 -1 0 0 -1 0 -1 -1 0 0 -1 0 -1 0 -1 0 -1 -1 -1 0 -1 0 -1 0 -1 0 -1 0 -2 -1 -1 0 -11 -1 8 -8 1 -2 1 -1 1 -1 2 -1 1 -1 1 -1 1 -1 2 -1 1 -1 1 -1 1 -1 1 -1 2 -1 1 0 1 -1 1 -1 2 -1 1 0 1 -1 1 0 2 -1 1 0 1 -1 2 0 1 0 1 0 2 -1 1 0 1 0 2 0 1 0 1 0 1 1 2 0 1 0 1 0 1 1 1 0 1 0 1 1 1 0 1 1 1 0 1 1 0 0 1 1 1 1 1 1 0 0 1 1 1 1 0 1 1 1 0 0 1 1 1 1 0 1 1 1 0 1 1 1 0 1 1 1 0 2 3 11 0 -1 0 -1 0 -1 0 -1 0 -2 0 -1 0 -1 0 -1 1 -2 0 -1 0 -1 0 -1 1 -1 0 -2 1 -1 0 -1 1 -1 0 -1 1 -1 1 -1 0 -1 1 -1 1 -1 1 -1 1 -1 1 -1 0 -1 1 0 0 -1 1 0 0 -1 1 -1 0 0 1 -1 0 -1 1 -1 1 -1 0 0 1 -1 0 -1 1 -1 0 -1 1 -1 0 -1 1 -1 1 -1 0 -1 1 -1 0 -1 1 -1 0 -1 1 -1 0 -1 1 -1 0 0 1 -1 0 -1 1 -1 8 -12 3 33 0 0 0 -2 1 -1 0 -1 0 -1 1 -1 0 -2 1 -1 0 -1 1 -1 0 -1 1 -1 1 -1 0 -1 1 -1 1 0 1 -1 0 -1 1 -1 1 -1 1 0 1 -1 1 -1 1 0 1 -1 1 -1 1 -1 1 0 2 -1 1 -1 1 -1 1 -1 1 0 1 -1 1 -1 1 -1 1 0 0 -1 1 0 0 -1 5 -9 4 9 0 1 1 0 0 1 1 0 1 1 1 1 1 1 1 0 1 1 1 1 1 1 2 1 1 0 1 1 1 1 1 1 1 0 1 1 1 1 1 0 1 1 1 1 0 1 1 1 1 0 1 1 0 1 1 1 1 1 0 1 1 1 0 1 1 1 0 2 1 1 0 1 0 1 1 1 0 2 0 0 3 -33 8 12 1 1 0 1 1 1 0 0 1 1 0 1 1 1 0 1 1 1 0 1 1 1 0 1 1 1 1 1 0 1 1 1 0 1 1 1 0 1 1 1 0 0 1 1 1 1 0 1 1 1 0 0 1 1 0 1 1 0 0 1 1 0 0 1 1 1 1 1 1 1 1 1 1 1 0 1 1 1 1 1 0 1 1 1 0 1 1 1 0 2 1 1 0 1 0 1 0 1 1 2 0 1 0 1 0 1 0 2 0 1 0 1 0 1 0 1 3 -11 0 -2 1 -1 0 -1 1 -1 0 -1 1 -1 0 -1 1 -1 1 -1 0 0 1 -1 0 -1 1 -1 1 -1 0 0 1 -1 1 -1 1 -1 0 0 1 -1 1 0 1 -1 1 0 1 -1 1 0 1 0 1 -1 1 0 1 0 2 0 1 -1 1 0 1 0 2 0 1 0 1 0 2 1 1 0 1 0 2 0 1 1 1 0 2 1 1 0 1 1 1 0 2 1 1 1 1 1 1 0 2 1 1 1 1 1 1 1 1 1 2 1 1 1 1 1 1 1 2 1 1 1 1 1 1 2 8 8 -11 1 -1 0 -2 1 -1 0 -1 0 -1 0 -1 0 -1 0 -1 1 -1 0 -1 0 -1 0 0 0 -1 1 -1 0 0 0 -1 1 0 0 -1 0 0 1 -1 0 0 1 -1 0 0 1 0 1 -1 0 0 1 -1 1 0 1 -1 2 0 1 0 1 -53 200 1 1 1 3 2 2 1 3 1 3 2 3 1 3 1 2 1 3 1 3 1 2 1 3 0 2 1 2 2 7 0 0 1 4 1 1 0 2 0 1 1 1 0 1 0 1 0 2 0 1 0 1 0 1 0 0 1 0 2 -1 1 0 1 -1 1 -1 1 -1 1 -1 1 0 1 -1 1 -1 1 -1 0 -1 1 -1 1 -1 0 -1 1 -2 0 -1 0 -1 1 -1 0 -1 0 -2 0 -1 0 -1 0 -2 0 -1 0 -2 0 -1 0 -2 0 -1 -1 -1 0 -2 0 -1 0 -1 -1 -4 0 -2 0 -1 -1 -1 0 -2 0 -1 0 -1 -1 -2 0 -1 0 -1 0 -2 0 -1 0 -1 0 -2 -1 -1 0 -1 0 -2 0 -1 0 -1 0 -2 1 -1 0 -1 0 -1 0 -2 0 -1 1 -1 0 -1 0 -1 1 -1 0 -1 0 -1 1 -1 0 -1 1 -1 0 -1 1 -1 0 -1 1 -1 1 -1 1 0 0 -1 1 -1 1 -1 1 0 1 -1 1 0 2 -1 1 0 1 0 1 -1 2 0 1 0 1 0 2 0 1 0 2 1 1 0 5 1 1 -1 1 -1 0 0 1 -1 1 -1 1 0 1 -1 1 0 1 0 1 -1 1 0 2 0 1 0 1 0 1 0 1 -1 1 0 1 0 2 0 1 1 1 0 1 0 2 0 1 0 1 0 1 0 2 1 1 0 2 1 2 0 1 1 2 1 2 0 2 1 2 1 1 1 2 1 2 1 2 1 2 1 2 1 2 1 2 1 2 2 2 1 2 1 2 1 2 1 2 1 1 1 2 1 2 1 2 1 1 1 2 0 1 1 2 1 1 0 2 1 1 0 1 1 1 0 2 0 1 0 2 1 1 0 2 0 2 0 2 0 2 1 2 0 2 0 3 0 2 0 2 0 2 -1 3 0 2 0 2 0 2 0 2 -1 3 0 2 -1 2 0 1 -1 2 0 2 -1 2 -1 1 -1 1 0 2 -1 1 -1 0 -1 1 0 1 -1 0 -1 1 -1 0 -1 1 0 0 -1 1 -2 1 -1 0 -1 0 -1 1 -1 0 -1 1 -2 0 -1 0 -1 1 -2 0 -1 0 -1 0 -2 0 -1 0 -1 0 -2 0 -1 0 -1 0 -1 0 -2 0 -1 0 -1 -1 -1 0 -1 0 -1 -1 -2 0 -1 -1 -1 0 -2 -1 -1 -1 -1 0 -1 -1 -2 0 -1 -1 -1 -1 -1 0 -2 -1 -1 -1 -1 0 -1 -1 -2 0 -1 -1 -2 -1 -1 0 -1 -1 -2 0 -2 -1 -1 0 -2 0 -2 -1 -1 0 -2 0 -2 -1 -2 0 -2 -2 -30 12 26 0 2 1 1 1 1 0 1 1 1 1 2 1 1 1 1 1 2 1 1 0 1 1 2 1 1 1 2 2 1 1 2 2 2 1 2 1 1 1 2 1 1 0 1 1 2 1 1 1 1 1 1 1 2 0 1 1 1 0 1 1 0 1 2 1 1 1 2 1 2 1 2 1 2 0 2 1 2 0 2 1 2 0 2 1 2 0 2 0 3 1 2 0 2 0 3 0 2 0 2 0 2 0 3 0 2 0 2 0 2 -1 2 0 2 0 2 -1 2 0 2 -1 2 0 1 -1 1 0 1 0 1 -1 1 0 1 -1 1 -1 1 0 1 -1 1 -1 1 0 1 -1 1 -1 1 0 1 -1 0 -1 1 -1 1 0 1 -1 0 3 4 0 3 0 2 0 1 0 2 -1 2 0 1 0 2 -1 2 0 1 -1 2 0 2 -1 1 -1 2 0 2 -1 1 -1 2 -1 1 -1 2 -1 1 -1 1 4 5 0 4 0 2 -1 2 0 2 0 2 -1 2 0 2 -1 2 0 2 -1 1 0 2 -1 2 -1 1 0 2 -1 2 -1 1 -1 2 -1 1 -1 2 -1 1 -1 2 -2 1 -1 1 -1 2 -2 1 -1 1 2 6 0 3 -1 1 0 1 0 1 -1 2 0 1 0 1 -1 1 0 1 -1 1 0 1 -1 1 0 2 -1 1 0 1 -1 1 -1 1 0 1 -1 1 -1 1 -1 1 0 1 -1 1 -1 1 -1 1 -1 1 -1 1 -2 1 -1 1 -1 1 -1 0 -2 1 -1 1 -2 1 0 0 0 4 0 2 -1 2 0 1 -1 2 0 1 -1 1 -1 2 -1 1 -1 2 -1 1 0 2 -1 1 -1 2 -2 1 -1 2 -1 1 -1 1 -1 2 -2 1 -1 1 -1 2 -2 1 -1 1 -1 1 -2 1 -1 1 -2 1 -2 0 -1 1 -2 1 -2 0 -1 0 -1 1 -2 0 -1 0 -1 0 -1 0 -1 0 -1 0 -1 0 -2 0 -1 0 -1 0 -2 0 -1 -1 -2 0 -1 0 -2 0 -1 0 -2 0 -1 -1 -2 0 -1 0 -2 -1 -1 0 -2 0 -2 -1 -1 0 -2 0 -1 -1 -2 0 -1 -1 -2 0 -1 -1 -2 0 -1 -1 -2 0 -1 -1 -2 0 -2 -1 -1 0 -2 -1 -2 0 -1 -1 -2 0 -2 -1 -2 0 -2 -1 -2 0 -3 -1 -2 0 -2 -1 -3 0 -3 0 -2 -1 -3 0 -3 -1 -3 0 -4 0 -3 -1 -4 0 -4 0 -4 0 -4 -1 -4 0 -33 -1 -4 0 0 0 -2 1 -1 1 -2 1 -1 1 -1 1 -1 1 -2 1 -1 1 -1 1 -1 1 -1 1 -1 2 -1 1 -1 1 -1 1 0 1 -1 1 -1 1 -1 1 -1 1 -1 1 -1 1 -9 9 3 -1 3 -1 4 -1 3 -1 3 -1 3 0 3 -1 2 0 3 -1 3 0 3 0 3 0 3 0 3 0 3 0 2 0 3 0 3 0 3 1 2 0 3 1 3 0 3 1 2 1 3 1 3 1 2 1 3 1 2 1 3 1 2 1 3 2 2 1 3 1 2 1 2 2 3 1 2 1 2 2 3 1 2 1 2 2 2 1 3 1 2 2 2 1 3 1 2 1 2 1 3 1 2 1 2 1 3 1 2 1 2 1 3 0 2 1 3 0 6 1 5 34 3 23 -10 -3 -2 -1 -3 -1 -3 -1 -2 0 -3 -1 -3 -1 -2 -1 -2 -1 -3 -2 -2 -1 -3 -1 -2 -1 -2 -1 -3 -1 -2 -1 -2 -1 -2 -2 -2 -1 -3 -1 -2 -1 -2 -1 -2 -1 -2 -1 -2 -1 -3 -1 -2 -1 -2 -1 -2 -1 -2 -1 -3 -1 -2 -1 -3 -1 -3 -1 -2 -1 -3 -1 -3 0 -3 -1 -3 0 -3 -1 -3 0 -3 0 -3 -1 -3 0 -4 0 -3 0 -3 1 -3 0 -3 0 -4 1 -3 0 -3 1 -4 1 -3 0 -4 1 -3 1 -4 2 -3 1 -4 1 -3 1 -4 2 -4 1 -4 2 -5 3 -6 -3 -4 -2 -4 -1 -4 -2 -3 -1 -4 -1 -3 -1 -4 -2 -3 -1 -4 -1 -3 0 -4 -1 -3 -1 -3 0 -4 -1 -3 0 -3 0 -3 -1 -3 0 -4 0 -3 0 -3 1 -3 0 -3 0 -3 1 -3 0 -3 1 -3 0 -3 1 -2 1 -3 1 -3 1 -2 1 -3 1 -2 1 -2 1 -2 1 -2 1 -3 1 -2 1 -2 1 -2 1 -2 1 -2 1 -3 1 -2 1 -2 2 -2 1 -2 1 -3 1 -2 1 -2 1 -3 1 -2 1 -3 2 -2 1 -2 1 -3 1 -3 1 -2 0 -3 1 -3 1 -2 1 -10 3 3 -23 5 -34 6 -1 3 0 2 -1 3 0 2 -1 2 -1 3 -1 2 -1 2 -1 3 -1 2 -1 2 -1 3 -1 2 -1 2 -2 3 -1 2 -1 2 -2 2 -1 3 -1 2 -2 2 -1 3 -1 2 -2 2 -1 3 -1 2 -1 3 -2 2 -1 3 -1 2 -1 3 -1 2 -1 3 -1 3 -1 2 -1 3 -1 3 0 3 -1 2 0 3 -1 3 0 3 0 2 0 3 0 3 0 3 0 3 0 3 0 3 0 3 1 2 0 3 1 3 0 3 1 3 1 4 1 3 1 3 1 -9 -9 -1 -1 -1 -1 -1 -1 -1 -1 -1 -1 -1 -1 0 -1 -1 -1 -1 -1 -1 -1 -1 -2 -1 -1 -1 -1 -1 -1 -1 -1 -2 -1 -1 -1 -1 -1 -1 -1 -2 -1 -1 -1 -2 -1 0 0 -4 0 -33 1 -4 0 -4 1 -4 0 -4 0 -4 0 -3 1 -4 0 -3 0 -3 1 -3 0 -2 1 -3 0 -3 0 -2 1 -2 0 -3 1 -2 0 -2 1 -2 0 -2 1 -2 0 -1 1 -2 0 -2 1 -1 0 -2 1 -2 0 -1 1 -2 0 -1 1 -2 0 -1 1 -2 0 -1 1 -2 0 -1 1 -2 0 -1 0 -2 1 -2 0 -1 0 -2 1 -1 0 -2 0 -1 1 -2 0 -1 0 -2 0 -1 0 -2 0 -1 1 -2 0 -1 0 -1 0 -2 0 -1 0 -1 0 -1 0 -1 0 -1 0 -1 0 -2 0 -1 -1 -1 0 -2 0 -2 -1 -1 -1 -2 0 -2 -1 -1 -1 -2 -1 -1 -1 -1 -1 -2 -1 -1 -2 -1 -1 -2 -1 -1 -2 -1 -1 -1 -1 -1 -2 -2 -1 -1 -2 -1 -1 0 -2 -1 -1 -1 -2 -1 -1 -1 -2 -1 -1 0 -1 -1 -2 0 -1 -1 -2 0 -1 -1 -6 -1 0 -1 -1 -2 -1 -1 0 -1 -1 -1 -1 -2 -1 -1 -1 -1 -1 -1 -1 -1 -1 -1 -1 0 -1 -1 -1 -1 -1 -1 -1 0 -1 -1 -1 -1 -1 0 -1 -1 -1 0 -2 -1 -1 0 -1 -1 -1 0 -1 -1 -1 0 -1 0 -1 -1 -2 0 -1 0 -1 -1 -1 0 -3 2 -6 -1 -1 -2 -1 -1 -2 -1 -1 -2 -1 -1 -2 -1 -1 -1 -2 -1 -1 -1 -2 -1 -1 -1 -2 0 -2 -1 -1 -1 -2 0 -2 -1 -1 0 -2 -1 -2 0 -2 -1 -2 0 -2 0 -2 -1 -2 0 -2 0 -4 4 -5 -1 -1 -1 -1 -1 -2 -1 -1 -1 -2 -1 -1 0 -2 -1 -2 -1 -1 0 -2 -1 -2 0 -1 -1 -2 0 -2 0 -1 -1 -2 0 -2 0 -1 0 -2 0 -3 3 -4 -1 0 0 -1 -1 -1 -1 -1 -1 0 0 -1 -1 -1 -1 -1 0 -1 -1 -1 -1 -1 0 -1 -1 -1 -1 -1 0 -1 -1 -1 0 -1 0 -1 -1 -1 0 -1 -1 -2 0 -2 -1 -2 0 -2 0 -2 -1 -2 0 -2 0 -2 0 -2 0 -3 0 -2 0 -2 0 -2 0 -3 0 -2 1 -2 0 -3 0 -2 1 -2 0 -2 1 -2 0 -2 1 -2 0 -2 1 -2 1 -2 1 -2 1 -2 1 -1 1 -2 1 0 0 -1 1 -1 0 -1 1 -2 1 -1 1 -1 1 -1 1 -2 0 -1 1 -1 1 -2 1 -1 1 -2 2 -2 1 -2 2 -1 1 -2 1 -1 1 -2 0 -1 1 -1 1 -2 1 -1 1 -1 1 -2 1 -1 0 -1 1 -1 1 -1 0 -2 12 -26 -2 30 0 2 -1 2 0 2 0 2 -1 1 0 2 0 2 -1 1 0 2 -1 2 0 1 -1 1 -1 2 0 1 -1 2 0 1 -1 1 -1 1 0 2 -1 1 -1 1 0 1 -1 2 0 1 -1 1 -1 1 0 2 -1 1 0 1 -1 2 0 1 0 1 -1 1 0 1 0 1 0 2 0 1 0 1 0 1 0 2 0 1 0 1 0 2 0 1 0 1 1 2 0 1 0 1 1 2 0 1 1 1 0 1 0 1 1 1 1 2 0 1 1 0 0 1 1 1 0 1 1 1 1 0 0 1 1 1 2 1 1 0 1 1 2 1 2 1 2 0 1 1 2 0 2 1 3 0 2 1 2 0 2 0 2 0 3 0 2 1 2 0 2 0 3 0 2 0 2 0 2 -1 2 0 2 0 2 0 1 0 2 -1 1 0 2 0 1 0 1 -1 1 0 2 -1 1 0 2 -1 1 -1 2 0 1 -1 2 -1 2 -1 2 -1 1 -1 2 -1 2 -1 2 -1 2 -1 2 -1 2 -2 2 -1 2 -1 2 -1 2 -1 2 -1 2 -1 2 -1 1 -1 2 -1 2 -1 2 0 2 -1 1 -1 2 0 2 -1 1 0 2 -1 1 0 1 0 1 0 2 0 1 0 1 0 1 -1 2 0 1 0 1 0 1 1 1 0 1 0 1 0 2 0 1 0 1 1 1 0 1 0 1 1 1 0 1 1 1 1 0 0 1 1 1 1 5 -1 1 0 2 -1 1 0 2 0 1 0 1 0 2 0 1 1 1 0 1 0 2 1 1 0 1 1 1 0 1 1 1 1 0 1 1 0 1 1 1 1 0 1 1 1 0 1 1 1 0 1 1 1 0 1 0 1 1 1 0 1 0 1 1 1 0 1 0 2 0 1 0 1 1 1 0 2 0 1 0 1 0 2 0 1 -1 1 0 2 0 1 0 1 0 2 0 1 0 1 -1 2 0 1 0 1 0 2 -1 1 0 1 0 2 -1 4 0 1 0 1 0 2 -1 1 0 1 0 2 0 1 0 2 0 1 0 2 0 1 0 1 0 2 0 1 1 1 0 1 0 1 1 2 0 1 1 1 1 1 0 1 1 1 1 1 1 1 1 0 1 1 1 1 1 1 1 1 1 0 2 1 1 0 0 0 0 -1 0 -1 0 -1 0 -2 0 -1 0 -1 1 -1 0 -1 0 -2 1 -1 1 -4 0 0z"/>
  <path class="fil4" d="M460 873l15 0 0 27 21 -27 17 0 -26 34 29 43 -17 0 -24 -34 0 34 -15 0 0 -77zm66 0l42 0 0 15 -27 0 0 13 27 0 0 14 -27 0 0 20 27 0 0 15 -42 0 0 -77zm63 0l14 0 17 53 18 -53 14 0 13 77 -14 0 -8 -49 -16 49 -13 0 -16 -49 -8 49 -15 0 14 -77zm88 0l41 0 0 15 -27 0 0 13 27 0 0 14 -27 0 0 20 27 0 0 15 -41 0 0 -77zm55 0l14 0 33 50 0 -50 14 0 0 77 -14 0 -33 -50 0 50 -14 0 0 -77zm71 0l42 0 0 15 -14 0 0 62 -15 0 0 -62 -13 0 0 -15zm52 0l42 0 0 15 -28 0 0 13 28 0 0 14 -28 0 0 20 28 0 0 15 -42 0 0 -77zm56 0l15 0c9,0 15,1 18,3 4,1 7,4 9,7 2,4 3,8 3,12 0,5 -1,10 -3,13 -3,3 -6,6 -11,8l18 34 -16 0 -17 -33 -2 0 0 33 -14 0 0 -77zm14 30l5 0c5,0 8,0 10,-2 1,-1 2,-3 2,-6 0,-1 0,-3 -1,-4 -1,-1 -2,-2 -4,-3 -1,0 -4,-1 -8,-1l-4 0 0 16zm45 -30l15 0 0 77 -15 0 0 -77zm54 0l15 0 29 77 -15 0 -6 -16 -31 0 -6 16 -15 0 29 -77zm8 21l-11 26 21 0 -10 -26zm48 -21l14 0 32 50 0 -50 15 0 0 77 -14 0 -33 -50 0 50 -14 0 0 -77zm-1080 129l15 0c9,0 15,1 18,2 4,2 7,4 9,8 2,3 3,7 3,12 0,5 -1,10 -4,13 -3,4 -6,6 -11,8 -3,0 -8,1 -16,1l0 32 -14 0 0 -76zm14 30l5 0c4,0 6,-1 8,-1 1,-1 2,-1 3,-3 1,-1 1,-2 1,-4 0,-3 -1,-5 -3,-6 -2,-1 -5,-2 -9,-2l-5 0 0 16zm46 -30l41 0 0 14 -27 0 0 14 27 0 0 14 -27 0 0 20 27 0 0 14 -41 0 0 -76zm55 0l14 0 32 50 0 -50 15 0 0 76 -14 0 -33 -50 0 50 -14 0 0 -76zm78 0l17 0c11,0 20,1 25,4 5,3 10,7 13,13 4,7 6,14 6,22 0,6 -1,11 -3,16 -2,5 -5,9 -8,13 -4,3 -8,5 -12,6 -4,1 -10,2 -20,2l-18 0 0 -76zm15 14l0 48 6 0c7,0 12,-1 15,-2 3,-2 5,-4 7,-8 2,-4 3,-8 3,-13 0,-8 -2,-15 -7,-19 -4,-4 -10,-6 -19,-6l-5 0zm58 -14l15 0 0 76 -15 0 0 -76zm31 0l17 0c11,0 20,1 25,4 5,3 10,7 13,13 4,7 5,14 5,22 0,6 0,11 -2,16 -2,5 -5,9 -8,13 -4,3 -8,5 -12,6 -4,1 -11,2 -20,2l-18 0 0 -76zm15 14l0 48 6 0c7,0 12,-1 15,-2 3,-2 5,-4 7,-8 2,-4 3,-8 3,-13 0,-8 -2,-15 -7,-19 -4,-4 -11,-6 -20,-6l-4 0zm58 -14l15 0 0 76 -15 0 0 -76zm31 0l15 0 0 26 20 -26 18 0 -27 34 29 42 -17 0 -23 -34 0 34 -15 0 0 -76zm89 0l15 0 29 76 -15 0 -6 -16 -31 0 -6 16 -15 0 29 -76zm7 20l-10 26 21 0 -11 -26zm48 -20l14 0 33 50 0 -50 14 0 0 76 -14 0 -32 -50 0 50 -15 0 0 -76zm108 0l18 0c11,0 19,1 24,4 6,3 10,7 14,13 3,7 5,14 5,22 0,6 -1,11 -3,16 -2,5 -5,9 -8,13 -4,3 -7,5 -11,6 -4,1 -11,2 -21,2l-18 0 0 -76zm15 14l0 48 7 0c6,0 11,-1 14,-2 3,-2 5,-4 7,-8 2,-4 3,-8 3,-13 0,-8 -2,-15 -7,-19 -4,-4 -10,-6 -19,-6l-5 0zm83 -14l14 0 30 76 -15 0 -6 -16 -31 0 -7 16 -15 0 30 -76zm7 20l-10 26 20 0 -10 -26zm48 -20l14 0 33 50 0 -50 14 0 0 76 -14 0 -32 -50 0 50 -15 0 0 -76zm108 0l15 0 0 26 21 -26 17 0 -27 34 30 42 -18 0 -23 -34 0 34 -15 0 0 -76zm66 0l42 0 0 14 -28 0 0 14 28 0 0 14 -28 0 0 20 28 0 0 14 -42 0 0 -76zm55 76l0 -76 12 0c7,0 12,0 15,1 5,2 9,4 11,7 3,3 4,7 4,12 0,3 0,5 -2,8 -1,2 -3,4 -5,6 4,2 7,5 10,8 2,4 3,7 3,12 0,4 -1,8 -3,12 -3,3 -6,6 -9,7 -4,2 -8,3 -15,3l-21 0zm14 -62l0 16 4 0c3,0 6,-1 8,-2 1,-2 2,-4 2,-6 0,-3 -1,-5 -2,-6 -2,-2 -4,-2 -8,-2l-4 0zm0 29l0 19 4 0c6,0 10,0 12,-2 3,-1 4,-4 4,-7 0,-3 -2,-5 -4,-7 -3,-2 -7,-3 -13,-3l-3 0zm47 -43l15 0 0 49c0,4 0,7 1,9 0,2 2,3 3,4 2,1 4,2 7,2 2,0 4,-1 6,-2 2,-1 3,-2 4,-4 1,-2 1,-5 1,-11l0 -47 15 0 0 45c0,8 -1,13 -2,16 -1,3 -2,6 -5,9 -2,3 -5,5 -8,6 -3,1 -7,2 -11,2 -6,0 -10,-1 -14,-4 -5,-2 -8,-5 -9,-9 -2,-4 -3,-11 -3,-20l0 -45zm69 0l17 0c11,0 19,1 24,4 6,3 10,7 14,13 3,7 5,14 5,22 0,6 -1,11 -3,16 -2,5 -5,9 -8,13 -3,3 -7,5 -11,6 -4,1 -11,2 -21,2l-17 0 0 -76zm14 14l0 48 7 0c6,0 11,-1 14,-2 3,-2 6,-4 7,-8 2,-4 3,-8 3,-13 0,-8 -2,-15 -6,-19 -4,-4 -11,-6 -20,-6l-5 0zm83 -14l15 0 29 76 -15 0 -6 -16 -31 0 -6 16 -15 0 29 -76zm7 20l-10 26 21 0 -11 -26zm43 -20l15 0 14 27 15 -27 15 0 -22 43 0 33 -15 0 0 -33 -22 -43zm94 0l15 0 29 76 -15 0 -6 -16 -31 0 -6 16 -15 0 29 -76zm8 20l-11 26 21 0 -10 -26zm71 -20l14 0 30 76 -15 0 -6 -16 -32 0 -6 16 -15 0 30 -76zm7 20l-10 26 20 0 -10 -26zm48 -20l14 0 33 50 0 -50 14 0 0 76 -14 0 -33 -50 0 50 -14 0 0 -76z"/>
 </g>
</svg>
